<mxfile host="Electron" modified="2023-11-08T03:55:11.545Z" agent="Mozilla/5.0 (Windows NT 10.0; Win64; x64) AppleWebKit/537.36 (KHTML, like Gecko) draw.io/21.8.2 Chrome/114.0.5735.289 Electron/25.8.1 Safari/537.36" etag="apJCnYWsXzdyogPSqk1V" version="21.8.2" type="device">
  <diagram id="C5RBs43oDa-KdzZeNtuy" name="Page-1">
    <mxGraphModel dx="1867" dy="887" grid="1" gridSize="10" guides="1" tooltips="1" connect="1" arrows="1" fold="1" page="1" pageScale="1" pageWidth="827" pageHeight="1169" math="0" shadow="0">
      <root>
        <mxCell id="WIyWlLk6GJQsqaUBKTNV-0" />
        <mxCell id="WIyWlLk6GJQsqaUBKTNV-1" parent="WIyWlLk6GJQsqaUBKTNV-0" />
        <mxCell id="Xr-Cp0rrInE6Zs7SCYuN-51" value="" style="edgeStyle=orthogonalEdgeStyle;rounded=0;orthogonalLoop=1;jettySize=auto;html=1;" edge="1" parent="WIyWlLk6GJQsqaUBKTNV-1" source="Xr-Cp0rrInE6Zs7SCYuN-49" target="Xr-Cp0rrInE6Zs7SCYuN-50">
          <mxGeometry relative="1" as="geometry" />
        </mxCell>
        <mxCell id="Xr-Cp0rrInE6Zs7SCYuN-49" value="Start" style="ellipse;whiteSpace=wrap;html=1;" vertex="1" parent="WIyWlLk6GJQsqaUBKTNV-1">
          <mxGeometry x="294" y="130" width="120" height="80" as="geometry" />
        </mxCell>
        <mxCell id="Xr-Cp0rrInE6Zs7SCYuN-53" value="" style="edgeStyle=orthogonalEdgeStyle;rounded=0;orthogonalLoop=1;jettySize=auto;html=1;" edge="1" parent="WIyWlLk6GJQsqaUBKTNV-1" source="Xr-Cp0rrInE6Zs7SCYuN-50" target="Xr-Cp0rrInE6Zs7SCYuN-52">
          <mxGeometry relative="1" as="geometry" />
        </mxCell>
        <mxCell id="Xr-Cp0rrInE6Zs7SCYuN-50" value="int saldo, nom_tarik&lt;br&gt;char konfirmasi" style="shape=hexagon;perimeter=hexagonPerimeter2;whiteSpace=wrap;html=1;fixedSize=1;" vertex="1" parent="WIyWlLk6GJQsqaUBKTNV-1">
          <mxGeometry x="276" y="240" width="156" height="80" as="geometry" />
        </mxCell>
        <mxCell id="Xr-Cp0rrInE6Zs7SCYuN-57" value="" style="edgeStyle=orthogonalEdgeStyle;rounded=0;orthogonalLoop=1;jettySize=auto;html=1;" edge="1" parent="WIyWlLk6GJQsqaUBKTNV-1" source="Xr-Cp0rrInE6Zs7SCYuN-52" target="Xr-Cp0rrInE6Zs7SCYuN-56">
          <mxGeometry relative="1" as="geometry" />
        </mxCell>
        <mxCell id="Xr-Cp0rrInE6Zs7SCYuN-52" value="saldo = 7.000.000" style="whiteSpace=wrap;html=1;" vertex="1" parent="WIyWlLk6GJQsqaUBKTNV-1">
          <mxGeometry x="295" y="360" width="119" height="60" as="geometry" />
        </mxCell>
        <mxCell id="Xr-Cp0rrInE6Zs7SCYuN-59" value="" style="edgeStyle=orthogonalEdgeStyle;rounded=0;orthogonalLoop=1;jettySize=auto;html=1;" edge="1" parent="WIyWlLk6GJQsqaUBKTNV-1" source="Xr-Cp0rrInE6Zs7SCYuN-56" target="Xr-Cp0rrInE6Zs7SCYuN-58">
          <mxGeometry relative="1" as="geometry" />
        </mxCell>
        <mxCell id="Xr-Cp0rrInE6Zs7SCYuN-56" value="" style="ellipse;whiteSpace=wrap;html=1;aspect=fixed;" vertex="1" parent="WIyWlLk6GJQsqaUBKTNV-1">
          <mxGeometry x="329.5" y="450" width="50" height="50" as="geometry" />
        </mxCell>
        <mxCell id="Xr-Cp0rrInE6Zs7SCYuN-61" value="" style="edgeStyle=orthogonalEdgeStyle;rounded=0;orthogonalLoop=1;jettySize=auto;html=1;" edge="1" parent="WIyWlLk6GJQsqaUBKTNV-1" source="Xr-Cp0rrInE6Zs7SCYuN-58" target="Xr-Cp0rrInE6Zs7SCYuN-60">
          <mxGeometry relative="1" as="geometry" />
        </mxCell>
        <mxCell id="Xr-Cp0rrInE6Zs7SCYuN-58" value="nom_tarik" style="shape=parallelogram;perimeter=parallelogramPerimeter;whiteSpace=wrap;html=1;fixedSize=1;" vertex="1" parent="WIyWlLk6GJQsqaUBKTNV-1">
          <mxGeometry x="294" y="540" width="120" height="60" as="geometry" />
        </mxCell>
        <mxCell id="Xr-Cp0rrInE6Zs7SCYuN-63" value="" style="edgeStyle=orthogonalEdgeStyle;rounded=0;orthogonalLoop=1;jettySize=auto;html=1;" edge="1" parent="WIyWlLk6GJQsqaUBKTNV-1" source="Xr-Cp0rrInE6Zs7SCYuN-60" target="Xr-Cp0rrInE6Zs7SCYuN-62">
          <mxGeometry relative="1" as="geometry" />
        </mxCell>
        <mxCell id="Xr-Cp0rrInE6Zs7SCYuN-66" value="True" style="edgeLabel;html=1;align=center;verticalAlign=middle;resizable=0;points=[];" vertex="1" connectable="0" parent="Xr-Cp0rrInE6Zs7SCYuN-63">
          <mxGeometry x="-0.2571" y="-1" relative="1" as="geometry">
            <mxPoint as="offset" />
          </mxGeometry>
        </mxCell>
        <mxCell id="Xr-Cp0rrInE6Zs7SCYuN-65" style="edgeStyle=orthogonalEdgeStyle;rounded=0;orthogonalLoop=1;jettySize=auto;html=1;entryX=1;entryY=0.5;entryDx=0;entryDy=0;" edge="1" parent="WIyWlLk6GJQsqaUBKTNV-1" source="Xr-Cp0rrInE6Zs7SCYuN-60" target="Xr-Cp0rrInE6Zs7SCYuN-56">
          <mxGeometry relative="1" as="geometry">
            <Array as="points">
              <mxPoint x="540" y="695" />
              <mxPoint x="540" y="475" />
            </Array>
          </mxGeometry>
        </mxCell>
        <mxCell id="Xr-Cp0rrInE6Zs7SCYuN-67" value="False" style="edgeLabel;html=1;align=center;verticalAlign=middle;resizable=0;points=[];" vertex="1" connectable="0" parent="Xr-Cp0rrInE6Zs7SCYuN-65">
          <mxGeometry x="-0.8818" y="-1" relative="1" as="geometry">
            <mxPoint as="offset" />
          </mxGeometry>
        </mxCell>
        <mxCell id="Xr-Cp0rrInE6Zs7SCYuN-60" value="nom_tarik &amp;lt; saldo" style="rhombus;whiteSpace=wrap;html=1;" vertex="1" parent="WIyWlLk6GJQsqaUBKTNV-1">
          <mxGeometry x="220.75" y="640" width="266.5" height="110" as="geometry" />
        </mxCell>
        <mxCell id="Xr-Cp0rrInE6Zs7SCYuN-69" value="" style="edgeStyle=orthogonalEdgeStyle;rounded=0;orthogonalLoop=1;jettySize=auto;html=1;" edge="1" parent="WIyWlLk6GJQsqaUBKTNV-1" source="Xr-Cp0rrInE6Zs7SCYuN-62" target="Xr-Cp0rrInE6Zs7SCYuN-68">
          <mxGeometry relative="1" as="geometry" />
        </mxCell>
        <mxCell id="Xr-Cp0rrInE6Zs7SCYuN-62" value="saldo -= nom_tarik" style="whiteSpace=wrap;html=1;" vertex="1" parent="WIyWlLk6GJQsqaUBKTNV-1">
          <mxGeometry x="256.5" y="800" width="195" height="60" as="geometry" />
        </mxCell>
        <mxCell id="Xr-Cp0rrInE6Zs7SCYuN-71" value="" style="edgeStyle=orthogonalEdgeStyle;rounded=0;orthogonalLoop=1;jettySize=auto;html=1;" edge="1" parent="WIyWlLk6GJQsqaUBKTNV-1" source="Xr-Cp0rrInE6Zs7SCYuN-68" target="Xr-Cp0rrInE6Zs7SCYuN-70">
          <mxGeometry relative="1" as="geometry" />
        </mxCell>
        <mxCell id="Xr-Cp0rrInE6Zs7SCYuN-68" value="konfirmasi" style="shape=parallelogram;perimeter=parallelogramPerimeter;whiteSpace=wrap;html=1;fixedSize=1;" vertex="1" parent="WIyWlLk6GJQsqaUBKTNV-1">
          <mxGeometry x="294" y="900" width="120" height="60" as="geometry" />
        </mxCell>
        <mxCell id="Xr-Cp0rrInE6Zs7SCYuN-73" value="" style="edgeStyle=orthogonalEdgeStyle;rounded=0;orthogonalLoop=1;jettySize=auto;html=1;" edge="1" parent="WIyWlLk6GJQsqaUBKTNV-1" source="Xr-Cp0rrInE6Zs7SCYuN-70" target="Xr-Cp0rrInE6Zs7SCYuN-72">
          <mxGeometry relative="1" as="geometry" />
        </mxCell>
        <mxCell id="Xr-Cp0rrInE6Zs7SCYuN-74" value="False" style="edgeLabel;html=1;align=center;verticalAlign=middle;resizable=0;points=[];" vertex="1" connectable="0" parent="Xr-Cp0rrInE6Zs7SCYuN-73">
          <mxGeometry x="-0.2334" relative="1" as="geometry">
            <mxPoint as="offset" />
          </mxGeometry>
        </mxCell>
        <mxCell id="Xr-Cp0rrInE6Zs7SCYuN-75" style="edgeStyle=orthogonalEdgeStyle;rounded=0;orthogonalLoop=1;jettySize=auto;html=1;entryX=0;entryY=0.5;entryDx=0;entryDy=0;" edge="1" parent="WIyWlLk6GJQsqaUBKTNV-1" source="Xr-Cp0rrInE6Zs7SCYuN-70" target="Xr-Cp0rrInE6Zs7SCYuN-56">
          <mxGeometry relative="1" as="geometry">
            <Array as="points">
              <mxPoint x="180" y="1040" />
              <mxPoint x="180" y="475" />
            </Array>
          </mxGeometry>
        </mxCell>
        <mxCell id="Xr-Cp0rrInE6Zs7SCYuN-77" value="True" style="edgeLabel;html=1;align=center;verticalAlign=middle;resizable=0;points=[];" vertex="1" connectable="0" parent="Xr-Cp0rrInE6Zs7SCYuN-75">
          <mxGeometry x="-0.9411" y="1" relative="1" as="geometry">
            <mxPoint as="offset" />
          </mxGeometry>
        </mxCell>
        <mxCell id="Xr-Cp0rrInE6Zs7SCYuN-70" value="konfirmasi = y" style="rhombus;whiteSpace=wrap;html=1;" vertex="1" parent="WIyWlLk6GJQsqaUBKTNV-1">
          <mxGeometry x="237" y="990" width="234" height="100" as="geometry" />
        </mxCell>
        <mxCell id="Xr-Cp0rrInE6Zs7SCYuN-72" value="End" style="ellipse;whiteSpace=wrap;html=1;" vertex="1" parent="WIyWlLk6GJQsqaUBKTNV-1">
          <mxGeometry x="295" y="1130" width="120" height="80" as="geometry" />
        </mxCell>
      </root>
    </mxGraphModel>
  </diagram>
</mxfile>
